# Wavefront OBJ file automatically generated by Tiled2Unity

# Vertices (Count = 121)
v -144 -16 0
v -160 -16 0
v -160 0 0
v -144 0 0
v -128 -16 0
v -128 0 0
v -112 -16 0
v -112 0 0
v -96 -16 0
v -96 0 0
v -80 -16 0
v -80 0 0
v -64 -16 0
v -64 0 0
v -48 -16 0
v -48 0 0
v -32 -16 0
v -32 0 0
v -16 -16 0
v -16 0 0
v 0 -16 0
v 0 0 0
v -144 -32 0
v -160 -32 0
v -128 -32 0
v -112 -32 0
v -96 -32 0
v -80 -32 0
v -64 -32 0
v -48 -32 0
v -32 -32 0
v -16 -32 0
v 0 -32 0
v -144 -48 0
v -160 -48 0
v -128 -48 0
v -112 -48 0
v -96 -48 0
v -80 -48 0
v -64 -48 0
v -48 -48 0
v -32 -48 0
v -16 -48 0
v 0 -48 0
v -144 -64 0
v -160 -64 0
v -128 -64 0
v -112 -64 0
v -96 -64 0
v -80 -64 0
v -64 -64 0
v -48 -64 0
v -32 -64 0
v -16 -64 0
v 0 -64 0
v -144 -80 0
v -160 -80 0
v -128 -80 0
v -112 -80 0
v -96 -80 0
v -80 -80 0
v -64 -80 0
v -48 -80 0
v -32 -80 0
v -16 -80 0
v 0 -80 0
v -144 -96 0
v -160 -96 0
v -128 -96 0
v -112 -96 0
v -96 -96 0
v -80 -96 0
v -64 -96 0
v -48 -96 0
v -32 -96 0
v -16 -96 0
v 0 -96 0
v -144 -112 0
v -160 -112 0
v -128 -112 0
v -112 -112 0
v -96 -112 0
v -80 -112 0
v -64 -112 0
v -48 -112 0
v -32 -112 0
v -16 -112 0
v 0 -112 0
v -144 -128 0
v -160 -128 0
v -128 -128 0
v -112 -128 0
v -96 -128 0
v -80 -128 0
v -64 -128 0
v -48 -128 0
v -32 -128 0
v -16 -128 0
v 0 -128 0
v -144 -144 0
v -160 -144 0
v -128 -144 0
v -112 -144 0
v -96 -144 0
v -80 -144 0
v -64 -144 0
v -48 -144 0
v -32 -144 0
v -16 -144 0
v 0 -144 0
v -144 -160 0
v -160 -160 0
v -128 -160 0
v -112 -160 0
v -96 -160 0
v -80 -160 0
v -64 -160 0
v -48 -160 0
v -32 -160 0
v -16 -160 0
v 0 -160 0

# Texture cooridinates (Count = 88)
vt 0.7026014 0.2909966
vt 0.7188862 0.2909966
vt 0.7188862 0.3211707
vt 0.7026014 0.3211707
vt 0.6850394 0.2909966
vt 0.7013242 0.2909966
vt 0.7013242 0.3211707
vt 0.6850394 0.3211707
vt 0.6674774 0.2909966
vt 0.6837623 0.2909966
vt 0.6837623 0.3211707
vt 0.6674774 0.3211707
vt 0.7026014 0.2586772
vt 0.7188862 0.2586772
vt 0.7188862 0.2888513
vt 0.7026014 0.2888513
vt 0.6850394 0.2586772
vt 0.7013242 0.2586772
vt 0.7013242 0.2888513
vt 0.6850394 0.2888513
vt 0.6674774 0.2586772
vt 0.6837623 0.2586772
vt 0.6837623 0.2888513
vt 0.6674774 0.2888513
vt 0.6674774 0.5495517
vt 0.6837623 0.5495517
vt 0.6837623 0.5797259
vt 0.6674774 0.5797259
vt 0.6499155 0.5495517
vt 0.6662002 0.5495517
vt 0.6662002 0.5797259
vt 0.6499155 0.5797259
vt 0.6674774 0.5818712
vt 0.6837623 0.5818712
vt 0.6837623 0.6120452
vt 0.6674774 0.6120452
vt 0.6499155 0.5818712
vt 0.6662002 0.5818712
vt 0.6662002 0.6120452
vt 0.6499155 0.6120452
vt 0.7026014 0.2263578
vt 0.7188862 0.2263578
vt 0.7188862 0.2565319
vt 0.7026014 0.2565319
vt 0.6674774 0.2263578
vt 0.6837623 0.2263578
vt 0.6837623 0.2565319
vt 0.6674774 0.2565319
vt 0.8606592 0.8727456
vt 0.8769441 0.8727456
vt 0.8769441 0.9029198
vt 0.8606592 0.9029198
vt 0.8606592 0.8404263
vt 0.8769441 0.8404263
vt 0.8769441 0.8706003
vt 0.8606592 0.8706003
vt 0.5094196 0.8727456
vt 0.5257044 0.8727456
vt 0.5257044 0.9029198
vt 0.5094196 0.9029198
vt 0.8606592 0.8081068
vt 0.8769441 0.8081068
vt 0.8769441 0.838281
vt 0.8606592 0.838281
vt 0.5094196 0.8404263
vt 0.5257044 0.8404263
vt 0.5257044 0.8706003
vt 0.5094196 0.8706003
vt 0.3864857 0.8404263
vt 0.4027705 0.8404263
vt 0.4027705 0.8706003
vt 0.3864857 0.8706003
vt 0.4742956 0.8081068
vt 0.4905804 0.8081068
vt 0.4905804 0.838281
vt 0.4742956 0.838281
vt 0.4742956 0.8727456
vt 0.4905804 0.8727456
vt 0.4905804 0.9029198
vt 0.4742956 0.9029198
vt 0.4567336 0.8727456
vt 0.4730184 0.8727456
vt 0.4730184 0.9029198
vt 0.4567336 0.9029198
vt 0.3689237 0.8404263
vt 0.3852085 0.8404263
vt 0.3852085 0.8706003
vt 0.3689237 0.8706003

# Normal
vn 0 0 -1

# Groups (Count = 2)

g mesh_0001
f 1/1/1 2/2/1 3/3/1 4/4/1
f 5/5/1 1/6/1 4/7/1 6/8/1
f 7/5/1 5/6/1 6/7/1 8/8/1
f 9/5/1 7/6/1 8/7/1 10/8/1
f 11/5/1 9/6/1 10/7/1 12/8/1
f 13/5/1 11/6/1 12/7/1 14/8/1
f 15/5/1 13/6/1 14/7/1 16/8/1
f 17/5/1 15/6/1 16/7/1 18/8/1
f 19/5/1 17/6/1 18/7/1 20/8/1
f 21/9/1 19/10/1 20/11/1 22/12/1
f 23/13/1 24/14/1 2/15/1 1/16/1
f 25/17/1 23/18/1 1/19/1 5/20/1
f 26/17/1 25/18/1 5/19/1 7/20/1
f 27/17/1 26/18/1 7/19/1 9/20/1
f 28/17/1 27/18/1 9/19/1 11/20/1
f 29/17/1 28/18/1 11/19/1 13/20/1
f 30/17/1 29/18/1 13/19/1 15/20/1
f 31/17/1 30/18/1 15/19/1 17/20/1
f 32/17/1 31/18/1 17/19/1 19/20/1
f 33/21/1 32/22/1 19/23/1 21/24/1
f 34/13/1 35/14/1 24/15/1 23/16/1
f 36/17/1 34/18/1 23/19/1 25/20/1
f 37/17/1 36/18/1 25/19/1 26/20/1
f 38/17/1 37/18/1 26/19/1 27/20/1
f 39/17/1 38/18/1 27/19/1 28/20/1
f 40/17/1 39/18/1 28/19/1 29/20/1
f 41/17/1 40/18/1 29/19/1 30/20/1
f 42/17/1 41/18/1 30/19/1 31/20/1
f 43/17/1 42/18/1 31/19/1 32/20/1
f 44/21/1 43/22/1 32/23/1 33/24/1
f 45/13/1 46/14/1 35/15/1 34/16/1
f 47/25/1 45/26/1 34/27/1 36/28/1
f 48/29/1 47/30/1 36/31/1 37/32/1
f 49/25/1 48/26/1 37/27/1 38/28/1
f 50/29/1 49/30/1 38/31/1 39/32/1
f 51/25/1 50/26/1 39/27/1 40/28/1
f 52/29/1 51/30/1 40/31/1 41/32/1
f 53/25/1 52/26/1 41/27/1 42/28/1
f 54/29/1 53/30/1 42/31/1 43/32/1
f 55/21/1 54/22/1 43/23/1 44/24/1
f 56/13/1 57/14/1 46/15/1 45/16/1
f 58/33/1 56/34/1 45/35/1 47/36/1
f 59/37/1 58/38/1 47/39/1 48/40/1
f 60/33/1 59/34/1 48/35/1 49/36/1
f 61/37/1 60/38/1 49/39/1 50/40/1
f 62/33/1 61/34/1 50/35/1 51/36/1
f 63/37/1 62/38/1 51/39/1 52/40/1
f 64/33/1 63/34/1 52/35/1 53/36/1
f 65/37/1 64/38/1 53/39/1 54/40/1
f 66/21/1 65/22/1 54/23/1 55/24/1
f 67/13/1 68/14/1 57/15/1 56/16/1
f 69/25/1 67/26/1 56/27/1 58/28/1
f 70/29/1 69/30/1 58/31/1 59/32/1
f 71/25/1 70/26/1 59/27/1 60/28/1
f 72/29/1 71/30/1 60/31/1 61/32/1
f 73/25/1 72/26/1 61/27/1 62/28/1
f 74/29/1 73/30/1 62/31/1 63/32/1
f 75/25/1 74/26/1 63/27/1 64/28/1
f 76/29/1 75/30/1 64/31/1 65/32/1
f 77/21/1 76/22/1 65/23/1 66/24/1
f 78/13/1 79/14/1 68/15/1 67/16/1
f 80/33/1 78/34/1 67/35/1 69/36/1
f 81/37/1 80/38/1 69/39/1 70/40/1
f 82/33/1 81/34/1 70/35/1 71/36/1
f 83/37/1 82/38/1 71/39/1 72/40/1
f 84/33/1 83/34/1 72/35/1 73/36/1
f 85/37/1 84/38/1 73/39/1 74/40/1
f 86/33/1 85/34/1 74/35/1 75/36/1
f 87/37/1 86/38/1 75/39/1 76/40/1
f 88/21/1 87/22/1 76/23/1 77/24/1
f 89/13/1 90/14/1 79/15/1 78/16/1
f 91/25/1 89/26/1 78/27/1 80/28/1
f 92/29/1 91/30/1 80/31/1 81/32/1
f 93/25/1 92/26/1 81/27/1 82/28/1
f 94/29/1 93/30/1 82/31/1 83/32/1
f 95/25/1 94/26/1 83/27/1 84/28/1
f 96/29/1 95/30/1 84/31/1 85/32/1
f 97/25/1 96/26/1 85/27/1 86/28/1
f 98/29/1 97/30/1 86/31/1 87/32/1
f 99/21/1 98/22/1 87/23/1 88/24/1
f 100/13/1 101/14/1 90/15/1 89/16/1
f 102/33/1 100/34/1 89/35/1 91/36/1
f 103/37/1 102/38/1 91/39/1 92/40/1
f 104/33/1 103/34/1 92/35/1 93/36/1
f 105/37/1 104/38/1 93/39/1 94/40/1
f 106/33/1 105/34/1 94/35/1 95/36/1
f 107/37/1 106/38/1 95/39/1 96/40/1
f 108/33/1 107/34/1 96/35/1 97/36/1
f 109/37/1 108/38/1 97/39/1 98/40/1
f 110/21/1 109/22/1 98/23/1 99/24/1
f 111/41/1 112/42/1 101/43/1 100/44/1
f 113/25/1 111/26/1 100/27/1 102/28/1
f 114/29/1 113/30/1 102/31/1 103/32/1
f 115/25/1 114/26/1 103/27/1 104/28/1
f 116/29/1 115/30/1 104/31/1 105/32/1
f 117/25/1 116/26/1 105/27/1 106/28/1
f 118/29/1 117/30/1 106/31/1 107/32/1
f 119/25/1 118/26/1 107/27/1 108/28/1
f 120/29/1 119/30/1 108/31/1 109/32/1
f 121/45/1 120/46/1 109/47/1 110/48/1

g mesh_0002
f 7/49/1 5/50/1 6/51/1 8/52/1
f 17/49/1 15/50/1 16/51/1 18/52/1
f 26/53/1 25/54/1 5/55/1 7/56/1
f 31/53/1 30/54/1 15/55/1 17/56/1
f 36/57/1 34/58/1 23/59/1 25/60/1
f 37/61/1 36/62/1 25/63/1 26/64/1
f 42/61/1 41/62/1 30/63/1 31/64/1
f 47/65/1 45/66/1 34/67/1 36/68/1
f 61/69/1 60/70/1 49/71/1 50/72/1
f 62/73/1 61/74/1 50/75/1 51/76/1
f 63/77/1 62/78/1 51/79/1 52/80/1
f 64/81/1 63/82/1 52/83/1 53/84/1
f 65/85/1 64/86/1 53/87/1 54/88/1

